<svg width="44" height="44" viewBox="0 0 44 44" fill="none" xmlns="http://www.w3.org/2000/svg">
<path fill-rule="evenodd" clip-rule="evenodd" d="M25.574 0.001H30.624C32.353 0.001 33.808 0.001 34.999 0.1C36.245 0.203 37.432 0.428 38.559 1.012C40.2827 1.90749 41.6787 3.32553 42.547 5.063C43.122 6.209 43.343 7.414 43.445 8.68C43.542 9.89 43.542 11.368 43.542 13.125V17.991C43.542 19.748 43.542 21.226 43.445 22.436C43.343 23.702 43.122 24.908 42.547 26.053C41.6789 27.7908 40.2828 29.2093 38.559 30.105C37.432 30.688 36.245 30.913 34.999 31.016C33.808 31.116 32.353 31.116 30.623 31.116H15.545C15.0242 31.1137 14.5158 30.9568 14.0843 30.6651C13.6527 30.3735 13.3175 29.9604 13.121 29.478C12.9202 28.9927 12.8651 28.4595 12.9624 27.9434C13.0597 27.4273 13.3053 26.9508 13.669 26.572L26.12 13.687L29.873 17.43L21.812 25.772H30.518C32.381 25.772 33.62 25.77 34.571 25.692C35.491 25.615 35.909 25.48 36.171 25.344C36.9016 24.9645 37.4931 24.3634 37.861 23.627C37.995 23.361 38.128 22.937 38.203 22.001C38.281 21.035 38.283 19.776 38.283 17.884V13.231C38.283 11.339 38.281 10.081 38.203 9.114C38.128 8.179 37.995 7.754 37.861 7.488C37.4931 6.75157 36.9016 6.15052 36.171 5.771C35.909 5.635 35.491 5.501 34.571 5.424C33.62 5.344 32.381 5.343 30.518 5.343H25.681C23.798 5.343 22.544 5.345 21.582 5.425C20.652 5.503 20.23 5.64 19.967 5.778C19.2323 6.16328 18.6396 6.7728 18.275 7.518C18.142 7.787 18.013 8.216 17.948 9.164C17.88 10.142 17.893 11.414 17.916 13.328L17.943 15.525L12.684 15.59L12.657 13.285C12.635 11.508 12.617 10.015 12.701 8.791C12.789 7.513 12.999 6.293 13.569 5.133C14.4292 3.37405 15.828 1.93532 17.562 1.026C18.697 0.433 19.895 0.206 21.152 0.1C22.355 0 23.826 0 25.574 0V0.001Z" fill="url(#paint0_linear_16_17)"/>
<path fill-rule="evenodd" clip-rule="evenodd" d="M25.574 0.001H30.624C32.353 0.001 33.808 0.001 34.999 0.1C36.245 0.203 37.432 0.428 38.559 1.012C40.2827 1.90749 41.6787 3.32553 42.547 5.063C43.122 6.209 43.343 7.414 43.445 8.68C43.542 9.89 43.542 11.368 43.542 13.125V17.991C43.542 19.748 43.542 21.226 43.445 22.436C43.343 23.702 43.122 24.908 42.547 26.053C41.6789 27.7908 40.2828 29.2093 38.559 30.105C37.432 30.688 36.245 30.913 34.999 31.016C33.808 31.116 32.353 31.116 30.623 31.116H15.545C15.0242 31.1137 14.5158 30.9568 14.0843 30.6651C13.6527 30.3735 13.3175 29.9604 13.121 29.478C12.9202 28.9927 12.8651 28.4595 12.9624 27.9434C13.0597 27.4273 13.3053 26.9508 13.669 26.572L26.12 13.687L29.873 17.43L21.812 25.772H30.518C32.381 25.772 33.62 25.77 34.571 25.692C35.491 25.615 35.909 25.48 36.171 25.344C36.9016 24.9645 37.4931 24.3634 37.861 23.627C37.995 23.361 38.128 22.937 38.203 22.001C38.281 21.035 38.283 19.776 38.283 17.884V13.231C38.283 11.339 38.281 10.081 38.203 9.114C38.128 8.179 37.995 7.754 37.861 7.488C37.4931 6.75157 36.9016 6.15052 36.171 5.771C35.909 5.635 35.491 5.501 34.571 5.424C33.62 5.344 32.381 5.343 30.518 5.343H25.681C23.798 5.343 22.544 5.345 21.582 5.425C20.652 5.503 20.23 5.64 19.967 5.778C19.2323 6.16328 18.6396 6.7728 18.275 7.518C18.142 7.787 18.013 8.216 17.948 9.164C17.88 10.142 17.893 11.414 17.916 13.328L17.943 15.525L12.684 15.59L12.657 13.285C12.635 11.508 12.617 10.015 12.701 8.791C12.789 7.513 12.999 6.293 13.569 5.133C14.4292 3.37405 15.828 1.93532 17.562 1.026C18.697 0.433 19.895 0.206 21.152 0.1C22.355 0 23.826 0 25.574 0V0.001Z" fill="url(#paint1_radial_16_17)"/>
<path fill-rule="evenodd" clip-rule="evenodd" d="M25.574 0.001H30.624C32.353 0.001 33.808 0.001 34.999 0.1C36.245 0.203 37.432 0.428 38.559 1.012C40.2827 1.90749 41.6787 3.32553 42.547 5.063C43.122 6.209 43.343 7.414 43.445 8.68C43.542 9.89 43.542 11.368 43.542 13.125V17.991C43.542 19.748 43.542 21.226 43.445 22.436C43.343 23.702 43.122 24.908 42.547 26.053C41.6789 27.7908 40.2828 29.2093 38.559 30.105C37.432 30.688 36.245 30.913 34.999 31.016C33.808 31.116 32.353 31.116 30.623 31.116H15.545C15.0242 31.1137 14.5158 30.9568 14.0843 30.6651C13.6527 30.3735 13.3175 29.9604 13.121 29.478C12.9202 28.9927 12.8651 28.4595 12.9624 27.9434C13.0597 27.4273 13.3053 26.9508 13.669 26.572L26.12 13.687L29.873 17.43L21.812 25.772H30.518C32.381 25.772 33.62 25.77 34.571 25.692C35.491 25.615 35.909 25.48 36.171 25.344C36.9016 24.9645 37.4931 24.3634 37.861 23.627C37.995 23.361 38.128 22.937 38.203 22.001C38.281 21.035 38.283 19.776 38.283 17.884V13.231C38.283 11.339 38.281 10.081 38.203 9.114C38.128 8.179 37.995 7.754 37.861 7.488C37.4931 6.75157 36.9016 6.15052 36.171 5.771C35.909 5.635 35.491 5.501 34.571 5.424C33.62 5.344 32.381 5.343 30.518 5.343H25.681C23.798 5.343 22.544 5.345 21.582 5.425C20.652 5.503 20.23 5.64 19.967 5.778C19.2323 6.16328 18.6396 6.7728 18.275 7.518C18.142 7.787 18.013 8.216 17.948 9.164C17.88 10.142 17.893 11.414 17.916 13.328L17.943 15.525L12.684 15.59L12.657 13.285C12.635 11.508 12.617 10.015 12.701 8.791C12.789 7.513 12.999 6.293 13.569 5.133C14.4292 3.37405 15.828 1.93532 17.562 1.026C18.697 0.433 19.895 0.206 21.152 0.1C22.355 0 23.826 0 25.574 0V0.001Z" fill="url(#paint2_radial_16_17)"/>
<path fill-rule="evenodd" clip-rule="evenodd" d="M25.574 0.001H30.624C32.353 0.001 33.808 0.001 34.999 0.1C36.245 0.203 37.432 0.428 38.559 1.012C40.2827 1.90749 41.6787 3.32553 42.547 5.063C43.122 6.209 43.343 7.414 43.445 8.68C43.542 9.89 43.542 11.368 43.542 13.125V17.991C43.542 19.748 43.542 21.226 43.445 22.436C43.343 23.702 43.122 24.908 42.547 26.053C41.6789 27.7908 40.2828 29.2093 38.559 30.105C37.432 30.688 36.245 30.913 34.999 31.016C33.808 31.116 32.353 31.116 30.623 31.116H15.545C15.0242 31.1137 14.5158 30.9568 14.0843 30.6651C13.6527 30.3735 13.3175 29.9604 13.121 29.478C12.9202 28.9927 12.8651 28.4595 12.9624 27.9434C13.0597 27.4273 13.3053 26.9508 13.669 26.572L26.12 13.687L29.873 17.43L21.812 25.772H30.518C32.381 25.772 33.62 25.77 34.571 25.692C35.491 25.615 35.909 25.48 36.171 25.344C36.9016 24.9645 37.4931 24.3634 37.861 23.627C37.995 23.361 38.128 22.937 38.203 22.001C38.281 21.035 38.283 19.776 38.283 17.884V13.231C38.283 11.339 38.281 10.081 38.203 9.114C38.128 8.179 37.995 7.754 37.861 7.488C37.4931 6.75157 36.9016 6.15052 36.171 5.771C35.909 5.635 35.491 5.501 34.571 5.424C33.62 5.344 32.381 5.343 30.518 5.343H25.681C23.798 5.343 22.544 5.345 21.582 5.425C20.652 5.503 20.23 5.64 19.967 5.778C19.2323 6.16328 18.6396 6.7728 18.275 7.518C18.142 7.787 18.013 8.216 17.948 9.164C17.88 10.142 17.893 11.414 17.916 13.328L17.943 15.525L12.684 15.59L12.657 13.285C12.635 11.508 12.617 10.015 12.701 8.791C12.789 7.513 12.999 6.293 13.569 5.133C14.4292 3.37405 15.828 1.93532 17.562 1.026C18.697 0.433 19.895 0.206 21.152 0.1C22.355 0 23.826 0 25.574 0V0.001Z" fill="url(#paint3_radial_16_17)"/>
<path fill-rule="evenodd" clip-rule="evenodd" d="M8.97 38.577C9.922 38.656 11.16 38.658 13.023 38.658H17.942C19.64 38.658 20.769 38.656 21.639 38.59C22.483 38.526 22.869 38.413 23.112 38.3C23.9567 37.9043 24.6316 37.2188 25.014 36.368C25.124 36.122 25.236 35.728 25.299 34.872C25.364 33.988 25.366 32.841 25.366 31.115H30.625V31.213C30.625 32.815 30.625 34.163 30.544 35.27C30.459 36.426 30.274 37.531 29.794 38.595C28.8916 40.6041 27.2985 42.2228 25.304 43.157C24.257 43.645 23.169 43.832 22.031 43.918C20.941 44.001 19.615 44.001 18.038 44.001H12.918C11.188 44.001 9.733 44.001 8.542 43.902C7.296 43.799 6.109 43.574 4.982 42.99C3.25836 42.0945 1.86236 40.6764 0.994 38.939C0.419 37.793 0.198 36.588 0.096 35.321C0 34.112 0 32.634 0 30.877V26.011C0 24.254 0 22.776 0.097 21.566C0.199 20.3 0.42 19.094 0.995 17.949C1.86319 16.2111 3.2592 14.7927 4.983 13.897C6.11 13.314 7.297 13.089 8.543 12.985C9.734 12.887 11.189 12.887 12.919 12.887H27.997C29.449 12.887 30.626 14.083 30.626 15.558C30.626 17.033 29.449 18.23 27.996 18.23H13.024C11.161 18.23 9.923 18.232 8.971 18.31C8.051 18.387 7.633 18.522 7.371 18.658C6.64049 19.0375 6.0489 19.6385 5.681 20.375C5.547 20.641 5.414 21.065 5.339 22.001C5.261 22.967 5.259 24.226 5.259 26.118V30.77C5.259 32.662 5.261 33.92 5.339 34.887C5.414 35.822 5.547 36.247 5.681 36.513C6.051 37.253 6.643 37.853 7.371 38.23C7.633 38.366 8.05 38.5 8.97 38.577Z" fill="url(#paint4_linear_16_17)"/>
<path fill-rule="evenodd" clip-rule="evenodd" d="M8.97 38.577C9.922 38.656 11.16 38.658 13.023 38.658H17.942C19.64 38.658 20.769 38.656 21.639 38.59C22.483 38.526 22.869 38.413 23.112 38.3C23.9567 37.9043 24.6316 37.2188 25.014 36.368C25.124 36.122 25.236 35.728 25.299 34.872C25.364 33.988 25.366 32.841 25.366 31.115H30.625V31.213C30.625 32.815 30.625 34.163 30.544 35.27C30.459 36.426 30.274 37.531 29.794 38.595C28.8916 40.6041 27.2985 42.2228 25.304 43.157C24.257 43.645 23.169 43.832 22.031 43.918C20.941 44.001 19.615 44.001 18.038 44.001H12.918C11.188 44.001 9.733 44.001 8.542 43.902C7.296 43.799 6.109 43.574 4.982 42.99C3.25836 42.0945 1.86236 40.6764 0.994 38.939C0.419 37.793 0.198 36.588 0.096 35.321C0 34.112 0 32.634 0 30.877V26.011C0 24.254 0 22.776 0.097 21.566C0.199 20.3 0.42 19.094 0.995 17.949C1.86319 16.2111 3.2592 14.7927 4.983 13.897C6.11 13.314 7.297 13.089 8.543 12.985C9.734 12.887 11.189 12.887 12.919 12.887H27.997C29.449 12.887 30.626 14.083 30.626 15.558C30.626 17.033 29.449 18.23 27.996 18.23H13.024C11.161 18.23 9.923 18.232 8.971 18.31C8.051 18.387 7.633 18.522 7.371 18.658C6.64049 19.0375 6.0489 19.6385 5.681 20.375C5.547 20.641 5.414 21.065 5.339 22.001C5.261 22.967 5.259 24.226 5.259 26.118V30.77C5.259 32.662 5.261 33.92 5.339 34.887C5.414 35.822 5.547 36.247 5.681 36.513C6.051 37.253 6.643 37.853 7.371 38.23C7.633 38.366 8.05 38.5 8.97 38.577Z" fill="url(#paint5_radial_16_17)"/>
<defs>
<linearGradient id="paint0_linear_16_17" x1="20.747" y1="30.874" x2="21.103" y2="-0.0390006" gradientUnits="userSpaceOnUse">
<stop offset="0.431" stop-color="#34D399"/>
<stop offset="1" stop-color="#34D399"/>
</linearGradient>
<radialGradient id="paint1_radial_16_17" cx="0" cy="0" r="1" gradientUnits="userSpaceOnUse" gradientTransform="translate(12.2734 9.42119) rotate(-15.65) scale(19.8802 19.9384)">
<stop stop-color="#34D399"/>
<stop offset="1" stop-color="#34D399" stop-opacity="0"/>
</radialGradient>
<radialGradient id="paint2_radial_16_17" cx="0" cy="0" r="1" gradientUnits="userSpaceOnUse" gradientTransform="translate(23.8862 18.2544) rotate(152.23) scale(7.44809 7.45863)">
<stop stop-color="#14B8A6"/>
<stop offset="0.354" stop-color="#14B8A6"/>
<stop offset="1" stop-color="#14B8A6" stop-opacity="0"/>
</radialGradient>
<radialGradient id="paint3_radial_16_17" cx="0" cy="0" r="1" gradientUnits="userSpaceOnUse" gradientTransform="translate(14.7844 28.3498) rotate(-46.089) scale(13.5749 13.5512)">
<stop stop-color="#14B8A6"/>
<stop offset="0.406" stop-color="#14B8A6"/>
<stop offset="1" stop-color="#14B8A6" stop-opacity="0"/>
</radialGradient>
<linearGradient id="paint4_linear_16_17" x1="30.788" y1="44.124" x2="30.902" y2="12.577" gradientUnits="userSpaceOnUse">
<stop stop-color="#0D9488"/>
<stop offset="0.822" stop-color="#14B8A6"/>
</linearGradient>
<radialGradient id="paint5_radial_16_17" cx="0" cy="0" r="1" gradientUnits="userSpaceOnUse" gradientTransform="translate(30.788 30.874) rotate(129.142) scale(13.423 13.2678)">
<stop offset="0.337" stop-color="#0D9488"/>
<stop offset="0.792" stop-color="#0D9488" stop-opacity="0"/>
</radialGradient>
</defs>
</svg>
